<svg id="Layer_1" data-name="Layer 1" xmlns="http://www.w3.org/2000/svg" xmlns:xlink="http://www.w3.org/1999/xlink" viewBox="0 0 1500 1125"><defs><style>.cls-1,.cls-12{fill:none;}.cls-2{fill:#fad771;}.cls-3{clip-path:url(#clip-path);}.cls-4{fill:#414141;}.cls-5{fill:#fbfffb;}.cls-6{fill:#42413d;}.cls-7{fill:#95744b;}.cls-8{fill:#42433e;}.cls-9{font-size:90px;font-family:BodoniSvtyTwoITCTT-Book, "Bodoni 72";}.cls-10{fill:#fefee4;}.cls-11{fill:#dad9de;}.cls-12{stroke:#000;stroke-miterlimit:10;}.cls-13{fill:#e3a962;}.cls-14{fill:#4f7f6f;}.cls-15{fill:#fff;}.cls-16{fill:#fbac00;}.cls-17{fill:#ff0;}.cls-18{fill:#8cc63f;}.cls-19{fill:#585a57;}</style><clipPath id="clip-path" transform="translate(-427)"><rect class="cls-1" x="-280.06" width="2436" height="1125"/></clipPath></defs><title>heroImage</title><rect class="cls-2" width="1500" height="1125"/><g class="cls-3"><path class="cls-4" d="M1308.94,524h-412V313.4a16.4,16.4,0,0,1,16.4-16.4H1293.8a15.14,15.14,0,0,1,15.14,15.14Z" transform="translate(-427)"/><rect x="485.94" y="308" width="380" height="205"/><path class="cls-5" d="M1299.85,553H909.17a12.24,12.24,0,0,1-12.23-12.24V524h412v19.91a9.09,9.09,0,0,1-9.09,9.09" transform="translate(-427)"/><path class="cls-4" d="M1109.94,536.5a6.5,6.5,0,1,1-6.5-6.5,6.5,6.5,0,0,1,6.5,6.5" transform="translate(-427)"/><path class="cls-5" d="M1070.56,553c3.18,16.87-.72,35-9.62,54h86.51q-17.12-27-11.88-54Z" transform="translate(-427)"/><rect class="cls-5" x="613.94" y="607" width="126" height="6"/><rect class="cls-6" x="81.94" y="613" width="744" height="60"/><rect class="cls-7" x="110.94" y="673" width="102" height="19"/><rect class="cls-7" x="698.94" y="673" width="102" height="19"/><polygon class="cls-8" points="65.94 1001 43.94 1001 128.94 692 150.94 692 65.94 1001"/><polygon class="cls-8" points="257.92 1001 279.92 1001 194.92 692 172.92 692 257.92 1001"/><rect class="cls-8" x="76.94" y="933" width="171" height="14"/><polygon class="cls-8" points="652.2 1000.73 630.2 1000.73 715.2 691.73 737.2 691.73 652.2 1000.73"/><polygon class="cls-8" points="844.18 1000.73 866.18 1000.73 781.18 691.73 759.18 691.73 844.18 1000.73"/><rect class="cls-8" x="663.2" y="932.73" width="171" height="14"/><rect class="cls-8" x="260.94" y="158" width="137" height="131"/><rect class="cls-5" x="272.94" y="167" width="113" height="113"/></g><text class="cls-9" transform="translate(299.15 252.27)">&amp;</text><g class="cls-3"><rect class="cls-10" x="93.94" y="256" width="131" height="96"/><rect class="cls-11" x="104.94" y="269" width="109" height="72"/><polygon class="cls-12" points="169.94 282 148.62 282 128.94 332 177.94 317 185.94 297 169.94 282"/><polygon class="cls-12" points="175.94 276 169.94 282 185.94 297 190.94 291 175.94 276"/><line class="cls-12" x1="166.71" y1="297" x2="128.94" y2="332"/><rect class="cls-13" y="984" width="1004.94" height="17"/><path class="cls-14" d="M669.44,613H544.94V576h124.5a18.5,18.5,0,0,1,0,37" transform="translate(-427)"/><path class="cls-15" d="M665.44,607H544.94V582h120.5a12.5,12.5,0,0,1,0,25" transform="translate(-427)"/><path class="cls-11" d="M669.44,576H544.94V539h124.5a18.5,18.5,0,0,1,0,37" transform="translate(-427)"/><path class="cls-15" d="M665.44,570H544.94V545h120.5a12.5,12.5,0,0,1,0,25" transform="translate(-427)"/><rect class="cls-16" x="733.94" y="536" width="5" height="47" transform="translate(-504.83 120.93) rotate(-8.92)"/><rect class="cls-17" x="723.94" y="557" width="47" height="5" transform="translate(-409.83 1141.24) rotate(-75.36)"/><rect class="cls-18" x="745.94" y="536" width="5" height="47" transform="translate(-584.42 330.1) rotate(-22.57)"/><rect class="cls-19" x="303.94" y="569" width="50" height="44"/></g></svg>