<?xml version="1.0" encoding="utf-8"?>
<!-- Generator: Adobe Illustrator 23.0.0, SVG Export Plug-In . SVG Version: 6.00 Build 0)  -->
<svg version="1.1" id="Layer_1" xmlns="http://www.w3.org/2000/svg" xmlns:xlink="http://www.w3.org/1999/xlink" x="0px" y="0px"
	 viewBox="0 0 180.6 195" style="enable-background:new 0 0 180.6 195;" xml:space="preserve">
<style type="text/css">
	.st0{fill:#FFFFFF;stroke:#000000;stroke-miterlimit:10;}
	.st1{fill:none;}
	.st2{fill:none;stroke:#F2AA40;stroke-width:2;stroke-miterlimit:10;}
	.st3{fill:#CF9068;}
	.st4{fill:none;stroke:#D68768;stroke-miterlimit:10;}
	.st5{font-family:'CambriaMath';}
	.st6{font-size:54px;}
	.st7{letter-spacing:-2;}
	.st8{fill:#F2AA40;}
</style>
<path class="st0" d="M142.4,116.6"/>
<path class="st1" d="M137.8,47.9"/>
<path class="st2" d="M0,76.6C2.1-5.9,114.5-26,161.9,37.2"/>
<path class="st3" d="M99.3,124.3c0,0-2.1,8.6-11.1,2.1c0,0-8.6-2.8,0-33.2l8.1-19.5l9.6-14.3l4.7-6.2c0,0,3.3-7.7-3.8-5.1l-7.4,9
	c0,0-10.7,12.4-17.4,40.1c0,0-3.6,24.6,3.4,29.3c0,0,4.7,5.5,13.7,2.3l2.3-2.5C101.2,126.3,103.3,121.8,99.3,124.3z"/>
<path class="st4" d="M89,113.4c0,0-21.3,2.6-40.4-17.4c0,0-22.1-17.4-34.7,5.6c0,0-8.8,33.6,24.2,22.7c0,0,7.3-2.4,16.9-11.4
	l15.4-15.9l15.6-20.3"/>
<rect x="93" y="41" transform="matrix(0.2497 -0.9683 0.9683 0.2497 23.1114 202.8169)" class="st1" width="98.9" height="91"/>
<text transform="matrix(0.9999 -1.560000e-02 1.560000e-02 0.9999 105.7949 128.0805)" class="st3 st5 st6 st7">L</text>
<g>
	<path class="st8" d="M23.2,166.1l-1.2,0.3c-0.2,0-0.4,0.1-0.5,0.1s-0.2,0.1-0.3,0.1c0,0-0.1,0.1-0.1,0.1s0,0.1,0.1,0.2l0.4,0.7
		l-0.2,0.2c-0.5-0.6-0.9-1-1.2-1.4c-0.3-0.4-0.7-0.8-1.1-1.3l0.2-0.2l0.7,0.5c0.2,0.1,0.3,0.2,0.4,0.2c0.1,0,0.3,0,0.5-0.1l7.8-1.6
		l0.6,0.6l-3.2,7.1c-0.1,0.3-0.2,0.5-0.2,0.6s0,0.3,0.1,0.5l0.4,0.7l-0.2,0.2c-0.4-0.5-0.9-1.1-1.4-1.6c-0.6-0.7-1.2-1.4-1.8-2.1
		l0.2-0.2l0.6,0.5c0.1,0.1,0.2,0.1,0.2,0.1c0.1,0,0.1,0,0.2,0c0.1,0,0.1-0.1,0.2-0.3s0.1-0.3,0.2-0.5l0.5-1.1L23.2,166.1z
		 M26.8,165.2c-0.2,0.1-0.4,0.1-0.7,0.2l-2.3,0.6l1.7,2l1-2.1C26.6,165.6,26.7,165.4,26.8,165.2z"/>
	<path class="st8" d="M39.9,182.7c0,0.1,0,0.2,0.1,0.3l0.8,0.6l-0.1,0.3c-0.6-0.3-1.1-0.6-1.5-0.8s-0.9-0.4-1.6-0.7l0.1-0.3l1,0.3
		c0.1,0,0.2,0,0.3-0.1c0.1-0.3,0.3-0.6,0.5-1l2-4.2c0.2-0.4,0.3-0.6,0.4-0.9c0-0.1,0-0.2-0.1-0.3l-0.8-0.6L41,175
		c0.6,0.3,1.1,0.6,1.5,0.7c0.5,0.2,0.9,0.4,1.3,0.6l2.6,6.5c0.1,0.3,0.2,0.5,0.3,0.8c0.1-0.3,0.2-0.5,0.3-0.7l1.3-2.7
		c0.2-0.3,0.3-0.6,0.4-0.9c0-0.1,0-0.2-0.1-0.2l-0.8-0.6l0.1-0.3c0.6,0.3,1.1,0.6,1.5,0.8c0.4,0.2,0.9,0.4,1.6,0.7l-0.1,0.3l-1-0.2
		c-0.1,0-0.2,0-0.3,0.1c-0.1,0.2-0.3,0.5-0.4,0.9l-2.7,5.8l-0.8-0.3l-3-7.8c-0.1-0.2-0.2-0.5-0.3-0.8c-0.1,0.3-0.2,0.5-0.3,0.7
		l-1.6,3.3C40.2,182.1,40.1,182.4,39.9,182.7z"/>
	<path class="st8" d="M68,183.6c-0.3-0.1-0.7-0.2-1-0.3c-0.5-0.1-1,0-1.4,0.2c-0.4,0.2-0.6,0.5-0.7,0.9c0,0.2,0,0.4,0.1,0.6
		c0.1,0.2,0.3,0.3,0.4,0.5s0.4,0.3,0.7,0.4s0.5,0.3,0.8,0.4c0.3,0.1,0.6,0.3,0.9,0.5s0.6,0.4,0.8,0.6c0.2,0.2,0.4,0.5,0.5,0.7
		c0.1,0.3,0.2,0.6,0.1,1c-0.1,0.8-0.5,1.3-1.4,1.7c-0.8,0.4-1.9,0.5-3.2,0.3c-0.9-0.1-1.8-0.3-2.7-0.6l0-0.1l0.6-2H63l0.4,1.8
		c0.4,0.2,0.8,0.3,1.2,0.3c0.6,0.1,1.2,0,1.6-0.2s0.7-0.5,0.7-0.9c0-0.2,0-0.4-0.1-0.6c-0.1-0.2-0.3-0.3-0.5-0.5s-0.4-0.3-0.7-0.4
		s-0.5-0.3-0.8-0.4c-0.3-0.1-0.6-0.3-0.9-0.5c-0.3-0.2-0.6-0.4-0.8-0.5s-0.4-0.5-0.5-0.7c-0.1-0.3-0.2-0.6-0.1-0.9
		c0.1-0.7,0.5-1.3,1.3-1.6c0.8-0.4,1.8-0.5,3-0.3c0.8,0.1,1.6,0.3,2.5,0.6l0,0.1l-0.7,1.8h-0.4L68,183.6z"/>
	<path class="st8" d="M94.4,185.6c0.2,1.3-0.2,2.5-1.1,3.4s-2.3,1.5-4.2,1.8c-1.8,0.2-3.2,0-4.3-0.6s-1.7-1.5-1.9-2.8
		c-0.2-1.3,0.2-2.4,1.1-3.4s2.3-1.5,4.2-1.7c1.8-0.2,3.2-0.1,4.3,0.5C93.6,183.4,94.2,184.4,94.4,185.6z M85.5,186.9
		c0.2,1.2,0.6,2.1,1.2,2.7c0.6,0.6,1.5,0.8,2.5,0.6c1-0.1,1.8-0.5,2.2-1.2c0.4-0.7,0.5-1.6,0.4-2.9c-0.2-1.2-0.5-2.1-1.2-2.6
		c-0.6-0.6-1.5-0.8-2.6-0.6c-1.1,0.1-1.8,0.5-2.2,1.2C85.4,184.8,85.3,185.7,85.5,186.9z"/>
	<path class="st8" d="M110.7,184.9c0,0.1,0.1,0.1,0.3,0.1l1-0.1l0.1,0.3c-0.7,0.2-1.2,0.4-1.6,0.6c-0.4,0.1-1,0.4-1.6,0.6l-0.1-0.3
		l0.9-0.5c0.1-0.1,0.2-0.2,0.1-0.2c-0.1-0.3-0.2-0.7-0.4-1.1l-1.6-4.3c-0.1-0.4-0.3-0.7-0.3-0.9c0-0.1-0.1-0.1-0.2-0.1l-1,0.1
		l-0.1-0.3c0.7-0.2,1.2-0.4,1.6-0.5c0.5-0.2,0.9-0.3,1.3-0.5l6.5,2.8c0.3,0.1,0.5,0.2,0.8,0.4c-0.1-0.3-0.2-0.5-0.3-0.7l-1-2.8
		c-0.1-0.4-0.2-0.6-0.3-0.9c0-0.1-0.1-0.1-0.3-0.1l-1,0.1l-0.1-0.3c0.7-0.2,1.2-0.4,1.6-0.6s1-0.4,1.6-0.6l0.1,0.3l-0.9,0.6
		c-0.1,0.1-0.1,0.1-0.1,0.2c0.1,0.2,0.2,0.5,0.3,0.9l2.2,6l-0.8,0.4l-7.7-3.3c-0.2-0.1-0.5-0.2-0.8-0.4c0.1,0.3,0.2,0.5,0.3,0.7
		l1.3,3.4C110.4,184.2,110.6,184.6,110.7,184.9z"/>
	<path class="st8" d="M138.1,164.9l2.6,3.8c0.2,0.4,0.5,0.7,0.7,1l2.5-1.7l0-2l0.4-0.3l1.1,2l0,0.1c-1.1,0.7-2.1,1.4-3.1,2.1
		l-1.6,1.1c-0.6,0.4-1.2,0.8-1.8,1.2l-0.2-0.2l0.7-0.7c0.1-0.1,0.1-0.2,0.1-0.3c-0.1-0.1-0.2-0.3-0.3-0.4c-0.1-0.2-0.2-0.3-0.4-0.5
		l-2.6-3.8c-0.1-0.2-0.2-0.3-0.3-0.4s-0.2-0.3-0.3-0.4c-0.1-0.1-0.1-0.1-0.3,0l-0.9,0.4l-0.2-0.2c0.6-0.4,1.2-0.8,1.9-1.3
		c0.7-0.5,1.4-0.9,1.9-1.3l0.2,0.2l-0.7,0.7c-0.1,0.1-0.1,0.2-0.1,0.3c0.1,0.1,0.2,0.3,0.3,0.5C138,164.8,138.1,165,138.1,164.9z"/>
	<path class="st8" d="M151.8,151.9l1.4-1.4c0.9-0.9,1.8-1.8,2.7-2.8l0.1,0l1,1.7l-0.3,0.3l-1.4-0.6l-2.1,2.1l2.2,2.2l0.3-0.3
		c0.3-0.3,0.6-0.7,1-1c0.1-0.1,0.1-0.2,0.1-0.3l-0.4-0.8l0.4-0.4c0.4,0.4,0.7,0.7,0.9,0.9c0.2,0.2,0.5,0.5,0.9,0.9l-0.3,0.4
		l-0.8-0.4c-0.1,0-0.2,0-0.3,0.1c-0.4,0.4-0.7,0.7-1,1l-0.3,0.3l1.4,1.4c0.3,0.3,0.6,0.6,0.9,0.9l2.2-2.2l-0.4-1.8l0.3-0.4l1.4,1.7
		l0,0.1c-0.9,0.9-1.8,1.8-2.6,2.6l-1.4,1.5c-0.5,0.5-0.9,1-1.4,1.5l-0.2-0.2l0.6-0.9c0.1-0.1,0.1-0.2,0-0.3
		c-0.1-0.1-0.2-0.2-0.4-0.4s-0.3-0.3-0.5-0.5l-3.3-3.3c-0.1-0.1-0.3-0.3-0.4-0.4c-0.1-0.1-0.2-0.2-0.3-0.3c-0.1-0.1-0.2-0.1-0.3,0
		l-0.9,0.6l-0.2-0.2C150.8,152.8,151.3,152.3,151.8,151.9z"/>
	<path class="st8" d="M164.9,135.9l1-1.7c0.6-1.1,1.3-2.2,2-3.4l0.1,0l1.4,1.4l-0.2,0.4l-1.5-0.3l-1.5,2.6l2.6,1.6l0.2-0.4
		c0.2-0.4,0.5-0.8,0.7-1.2c0.1-0.1,0.1-0.2,0-0.3l-0.5-0.6l0.3-0.5c0.5,0.3,0.8,0.5,1.1,0.7c0.2,0.1,0.6,0.3,1.1,0.6l-0.2,0.5
		l-0.9-0.2c-0.1,0-0.2,0-0.3,0.1c-0.3,0.5-0.5,0.9-0.8,1.3l-0.2,0.4l1.7,1c0.4,0.2,0.7,0.4,1.1,0.6l1.6-2.6l-0.8-1.6l0.2-0.4
		l1.8,1.3l0,0.1c-0.7,1.1-1.3,2.2-1.9,3.2l-1.1,1.8c-0.3,0.6-0.7,1.2-1,1.8l-0.3-0.1l0.4-1c0-0.1,0-0.2,0-0.3
		c-0.1-0.1-0.3-0.2-0.4-0.3s-0.3-0.2-0.5-0.3l-4-2.4c-0.2-0.1-0.3-0.2-0.5-0.3c-0.1-0.1-0.3-0.1-0.4-0.2c-0.1,0-0.2,0-0.3,0.1
		l-0.7,0.8l-0.3-0.1C164.2,137.1,164.6,136.5,164.9,135.9z"/>
</g>
</svg>
